<svg width="104" height="127" viewBox="0 0 104 127" fill="none" xmlns="http://www.w3.org/2000/svg">
<path d="M78.94 117.9C79.7684 117.9 80.44 117.228 80.44 116.4C80.44 115.572 79.7684 114.9 78.94 114.9C78.1116 114.9 77.44 115.572 77.44 116.4C77.44 117.228 78.1116 117.9 78.94 117.9Z" fill="black"/>
<path d="M50 41C51.1046 41 52 40.1046 52 39C52 37.8954 51.1046 37 50 37C48.8954 37 48 37.8954 48 39C48 40.1046 48.8954 41 50 41Z" fill="black"/>
<path d="M40.03 88.79C40.8584 88.79 41.53 88.1184 41.53 87.29C41.53 86.4616 40.8584 85.79 40.03 85.79C39.2016 85.79 38.53 86.4616 38.53 87.29C38.53 88.1184 39.2016 88.79 40.03 88.79Z" fill="black"/>
<path d="M30 41C31.1046 41 32 40.1046 32 39C32 37.8954 31.1046 37 30 37C28.8954 37 28 37.8954 28 39C28 40.1046 28.8954 41 30 41Z" fill="black"/>
<path d="M48.261 29.515C48.286 29.509 50.902 29.083 52.703 30.357C52.878 30.481 53.08 30.54 53.279 30.54C53.593 30.54 53.902 30.393 54.097 30.117C54.415 29.666 54.308 29.042 53.857 28.723C51.366 26.962 48.056 27.52 47.917 27.545C47.374 27.641 47.012 28.157 47.106 28.7C47.2 29.244 47.717 29.611 48.261 29.515Z" fill="black"/>
<path d="M32.093 27.545C31.954 27.521 28.645 26.963 26.153 28.723C25.702 29.042 25.595 29.666 25.913 30.117C26.108 30.392 26.417 30.54 26.731 30.54C26.93 30.54 27.132 30.48 27.307 30.357C29.109 29.084 31.724 29.511 31.749 29.515C32.296 29.604 32.809 29.246 32.905 28.703C33 28.159 32.637 27.641 32.093 27.545Z" fill="black"/>
<path d="M36.729 43.933C37.831 44.243 38.932 44.4 40 44.4C41.08 44.4 42.181 44.243 43.273 43.932C43.804 43.781 44.112 43.228 43.961 42.697C43.81 42.166 43.257 41.856 42.726 42.009C40.894 42.53 39.144 42.535 37.27 42.009C36.735 41.855 36.186 42.169 36.037 42.7C35.888 43.231 36.198 43.783 36.729 43.933Z" fill="black"/>
<path d="M102.894 70.402L88.51 64.609V60.3C88.51 59.748 88.062 59.3 87.51 59.3H71.29C70.738 59.3 70.29 59.748 70.29 60.3V63.152L55.961 68.84C55.714 68.939 55.517 69.13 55.412 69.373C55.307 69.617 55.303 69.893 55.401 70.139L60.587 83.187C57.549 80.558 54.226 78.408 50.662 76.77L47 71.697V68.703C53.3 66.41 58.469 61.496 60.857 57.515C61.426 56.57 61.972 55.377 62.487 53.987C65.402 53.938 68.228 51.761 69.418 48.525C70.941 44.385 69.353 39.884 65.851 38.438C68.179 31.338 67.228 19.555 61.438 10.996C58.044 5.98 51.569 0 40 0C28.426 0 21.951 5.984 18.558 11.004C12.772 19.563 11.827 31.34 14.158 38.436C10.659 39.857 9.055 44.373 10.582 48.525C11.793 51.817 14.568 53.961 17.515 53.991C18.03 55.379 18.575 56.57 19.143 57.514C21.531 61.496 26.7 66.41 33 68.702V71.697L29.338 76.769C24.084 79.18 19.345 82.705 15.256 87.262C8.579 94.708 3.9 104.652 1.352 116.814C0.801002 119.431 0.349002 122.151 0.00800178 124.897C-0.0279982 125.181 0.0610018 125.467 0.251002 125.682C0.441002 125.897 0.713002 126.02 1 126.02H71.51H85.56C85.837 126.02 86.102 125.905 86.291 125.703C86.48 125.5 86.577 125.228 86.558 124.952L85.276 106.09C85.444 105.084 86.683 97.707 87.065 96.022C87.068 96.009 87.063 95.996 87.066 95.982C87.069 95.967 87.078 95.955 87.08 95.94C87.081 95.936 87.083 95.918 87.086 95.892L91.845 97.817C91.965 97.866 92.093 97.89 92.22 97.89C92.353 97.89 92.486 97.864 92.611 97.811C92.855 97.707 93.048 97.51 93.148 97.264L103.448 71.703C103.654 71.191 103.406 70.609 102.894 70.402ZM82.651 92.476C82.845 92.717 83.134 92.865 83.449 92.85C83.717 92.849 84.598 92.955 84.879 93.351C84.943 93.443 85.091 93.736 85.135 94.426C85.135 94.428 85.134 94.429 85.134 94.43C85.134 94.438 85.137 94.445 85.138 94.453C85.139 94.465 85.141 94.473 85.141 94.485C85.172 95.056 85.112 95.558 85.102 95.634C84.669 97.577 83.339 105.534 83.283 105.875C83.276 105.915 83.289 105.952 83.287 105.992C83.285 106.031 83.269 106.067 83.272 106.107L83.57 110.499C80.627 111.521 77.597 111.54 74.355 110.552L74.889 106.345C76.095 106.836 77.351 107.143 78.585 107.236C78.61 107.238 78.636 107.239 78.661 107.239C79.179 107.239 79.618 106.84 79.657 106.314C79.699 105.763 79.286 105.283 78.735 105.242C77.367 105.138 75.958 104.722 74.651 104.036C74.618 104.013 74.583 103.99 74.547 103.971C71.192 102.15 69.154 98.954 69.23 95.61V95.37L70.493 94.871C70.691 95.375 70.996 95.838 71.417 96.229C71.973 96.735 72.746 97.014 73.592 97.045C73.466 98.035 73.769 98.989 74.527 99.76C75.161 100.406 76.099 100.76 77.173 100.76C77.181 100.76 77.189 100.76 77.197 100.76C78.329 100.754 79.407 100.361 80.029 99.715L81.449 98.165C81.822 97.758 81.794 97.125 81.387 96.752C80.979 96.379 80.347 96.407 79.974 96.814L78.571 98.346C78.407 98.516 77.87 98.757 77.188 98.76C77.183 98.76 77.179 98.76 77.174 98.76C76.65 98.76 76.206 98.614 75.956 98.359C75.23 97.621 75.634 96.753 76.101 96.155C77.566 94.332 78.551 93.244 79.852 93.466C80.4 93.559 80.914 93.195 81.008 92.651C81.102 92.107 80.737 91.589 80.193 91.496C77.631 91.061 75.986 93.105 74.568 94.883C74.346 95.047 73.283 95.224 72.774 94.759C72.409 94.42 72.231 94.006 72.244 93.52C72.251 93.106 72.393 92.67 72.669 92.219C72.674 92.21 73.196 91.354 74.053 90.322C74.098 90.262 74.152 90.202 74.215 90.13C74.772 89.475 75.334 88.909 75.884 88.45C75.892 88.443 75.895 88.433 75.903 88.426C76.645 87.824 77.336 87.429 77.958 87.253C78.352 87.141 78.744 87.079 79.142 87.07C80.684 87.011 81.813 87.731 82.356 88.427C82.81 89.008 82.688 90.674 82.461 91.616C82.386 91.917 82.457 92.235 82.651 92.476ZM40 70C41.646 70 43.323 69.768 45 69.329V71.401L40 73.901L35 71.401V69.328C36.677 69.769 38.354 70 40 70ZM67.239 96.167C67.37 99.821 69.521 103.26 72.995 105.379L71.644 116.02H65V94.289L65.581 95.75C65.737 96.143 66.113 96.381 66.511 96.381C66.633 96.381 66.758 96.359 66.879 96.311L67.239 96.167ZM36 84.02C36.061 84.02 36.123 84.014 36.184 84.003C36.492 83.945 36.755 83.747 36.895 83.467L40 77.256L43.105 83.467C43.245 83.747 43.508 83.946 43.816 84.003C43.877 84.014 43.939 84.02 44 84.02C44.247 84.02 44.487 83.928 44.673 83.759L46.584 82.02L40 94.833L33.417 82.021L35.328 83.76C35.513 83.928 35.753 84.02 36 84.02ZM15 116.02H3.577C5.86 105.844 9.696 97.337 15 90.676V116.02ZM65 118.02H71.39L70.628 124.02H65V118.02ZM74.1 112.564C75.758 113.036 77.393 113.285 78.996 113.285C80.602 113.285 82.176 113.04 83.712 112.565L84.153 119.062C81.191 120.012 76.96 119.917 73.307 118.816L74.1 112.564ZM70.29 65.303V89.72C70.29 90.261 70.721 90.695 71.258 90.713C71.074 90.986 70.966 91.162 70.958 91.177C70.633 91.708 70.424 92.249 70.319 92.789L67.862 93.76C67.82 93.777 67.78 93.795 67.742 93.817L67.07 94.084L64.148 86.732L57.629 70.331L70.29 65.303ZM67.541 47.835C66.741 50.009 65.025 51.546 63.191 51.9C64.165 48.679 64.935 44.709 65.416 40.465C67.683 41.639 68.647 44.83 67.541 47.835ZM12.458 47.835C11.35 44.822 12.324 41.622 14.593 40.462C15.074 44.721 15.841 48.692 16.807 51.897C14.969 51.541 13.258 50.01 12.458 47.835ZM20.857 56.484C20.264 55.5 19.689 54.204 19.146 52.633C17.931 49.111 16.98 44.33 16.463 39.158C17.352 32.54 19.32 26.822 22.325 22.127C22.678 23.942 22.693 25.929 21.81 28.184C21.665 28.554 21.753 28.975 22.034 29.255C22.316 29.536 22.736 29.624 23.105 29.48C28.005 27.565 32.574 24.48 36.719 20.29C36.247 22.304 35.149 23.944 33.4 25.26C33.048 25.524 32.911 25.987 33.061 26.4C33.211 26.813 33.623 27.087 34.052 27.057C41.563 26.673 48.199 24.157 53.816 19.573C53.612 24.815 55.188 29.712 58.598 34.471C58.882 34.867 59.411 35 59.849 34.787C60.874 34.287 61.586 33.601 61.98 32.738C63.049 34.168 63.565 36.266 63.55 39.092C63.55 39.098 63.553 39.103 63.553 39.108C63.04 44.272 62.083 49.072 60.854 52.63C60.311 54.201 59.735 55.497 59.142 56.482C56.931 60.167 51.777 65.045 45.686 67.048C41.864 68.308 38.135 68.309 34.311 67.047C28.222 65.048 23.068 60.17 20.857 56.484ZM3.157 118.02H15V124.02H2.138C2.414 121.985 2.762 119.981 3.157 118.02ZM72.645 124.02L73.049 120.836C74.984 121.381 77.257 121.734 79.529 121.734C81.165 121.734 82.794 121.546 84.292 121.124L84.489 124.02H72.645ZM91.667 95.587L87.073 93.729C86.977 93.109 86.792 92.597 86.516 92.201C86.014 91.493 85.246 91.154 84.597 90.994C84.733 89.885 84.751 88.247 83.929 87.194C83.128 86.169 81.888 85.457 80.531 85.187L88.035 66.569L101.22 71.882L91.667 95.587Z" fill="black"/>
</svg>
